<mxfile host="65bd71144e">
    <diagram id="xVxIHw1tB7rNhklh-mjT" name="Page-1">
        <mxGraphModel dx="523" dy="423" grid="1" gridSize="10" guides="1" tooltips="1" connect="1" arrows="1" fold="1" page="1" pageScale="1" pageWidth="850" pageHeight="1100" background="none" math="0" shadow="0">
            <root>
                <mxCell id="0"/>
                <mxCell id="1" parent="0"/>
                <mxCell id="5" value="" style="edgeStyle=none;html=1;" edge="1" parent="1" source="2" target="4">
                    <mxGeometry relative="1" as="geometry"/>
                </mxCell>
                <object label="A, A, B, B, B, C, D, D, E, E, E, F, F&lt;span style=&quot;color: rgba(0, 0, 0, 0); font-family: monospace; text-align: start; background-color: rgb(24, 20, 29); font-size: 0px;&quot;&gt;%3CmxGraphModel%3E%3Croot%3E%3CmxCell%20id%3D%220%22%2F%3E%3CmxCell%20id%3D%221%22%20parent%3D%220%22%2F%3E%3CmxCell%20id%3D%222%22%20value%3D%22%26lt%3Bfont%20color%3D%26quot%3B%23ffffff%26quot%3B%20style%3D%26quot%3Bfont-size%3A%2036px%3B%26quot%3B%26gt%3Bnums%26lt%3B%2Ffont%26gt%3B%22%20style%3D%22text%3BstrokeColor%3D%23C73500%3Balign%3Dcenter%3BfillColor%3Dnone%3Bhtml%3D1%3BverticalAlign%3Dmiddle%3BwhiteSpace%3Dwrap%3Brounded%3D0%3BfontColor%3D%23000000%3Bshadow%3D0%3B%22%20vertex%3D%221%22%20parent%3D%221%22%3E%3CmxGeometry%20x%3D%22174%22%20y%3D%22-10%22%20width%3D%22107%22%20height%3D%2230%22%20as%3D%22geometry%22%2F%3E%3C%2FmxCell%3E%3C%2Froot%3E%3C%2FmxGraphModel%3E&lt;/span&gt;" id="2">
                    <mxCell style="whiteSpace=wrap;html=1;fillColor=#fa6800;fontColor=#000000;strokeColor=#C73500;rounded=1;shadow=0;glass=0;" vertex="1" parent="1">
                        <mxGeometry x="150" y="141" width="200" height="39" as="geometry"/>
                    </mxCell>
                </object>
                <mxCell id="3" value="&lt;font color=&quot;#ffffff&quot; style=&quot;font-size: 36px;&quot;&gt;nums&lt;/font&gt;" style="text;strokeColor=#C73500;align=center;fillColor=none;html=1;verticalAlign=middle;whiteSpace=wrap;rounded=0;fontColor=#000000;shadow=0;" vertex="1" parent="1">
                    <mxGeometry x="196.5" y="100" width="107" height="30" as="geometry"/>
                </mxCell>
                <mxCell id="4" value="A, B, C, D, E, F, A, B, B, D, E, E, F" style="whiteSpace=wrap;html=1;fillColor=#fa6800;strokeColor=#C73500;fontColor=#000000;rounded=1;shadow=0;glass=0;" vertex="1" parent="1">
                    <mxGeometry x="150" y="227" width="200" height="39" as="geometry"/>
                </mxCell>
            </root>
        </mxGraphModel>
    </diagram>
</mxfile>